<svg id="Layer_1" data-name="Layer 1" xmlns="http://www.w3.org/2000/svg" viewBox="0 0 92.12 92.12"><defs><style>.cls-1{fill:#c6c5c6;}</style></defs><path class="cls-1" d="M0,21c.16-.69.3-1.38.47-2.06A18.36,18.36,0,0,1,18.55,4.75c6-.06,12,0,18.05,0,9.12.08,16.47,6,18.18,14.9a40.37,40.37,0,0,1,.29,8.94c-.08,2.28-2.41,3.91-4.88,3.76A4.54,4.54,0,0,1,46,28.09c-.06-2.12,0-4.26-.19-6.36A9,9,0,0,0,37.28,14c-6.47-.06-12.94-.11-19.4,0-4.51.09-8.71,3.87-8.7,9.67.05,14.28,0,28.56,0,42.84a24.12,24.12,0,0,0,.33,4.81,9,9,0,0,0,8.7,7q9.2,0,18.4,0A9.18,9.18,0,0,0,46,69.18c0-1.56,0-3.12,0-4.67A4.53,4.53,0,0,1,50.46,60a4.44,4.44,0,0,1,4.68,4.32c0,3.52.31,7-.81,10.5A18.45,18.45,0,0,1,36.6,87.58q-9,.08-18,0A18.39,18.39,0,0,1,.26,72.42C.18,72,.09,71.68,0,71.31Z"/><path class="cls-1" d="M75.93,50.81H23.43a4.73,4.73,0,0,1-4.92-3.5,4.65,4.65,0,0,1,4.41-5.78c.33,0,.66,0,1,0H76.13c-.35-.38-.55-.62-.78-.84-3.17-3.17-6.36-6.33-9.52-9.53a4.61,4.61,0,1,1,6.41-6.62c2.86,2.8,5.68,5.66,8.51,8.5q4.74,4.72,9.46,9.46c2.39,2.39,2.38,5,0,7.36q-8.88,8.9-17.77,17.78a4.61,4.61,0,0,1-6.53.36,4.56,4.56,0,0,1,0-6.84c3.13-3.17,6.3-6.31,9.46-9.46a7.55,7.55,0,0,1,.77-.6Z"/></svg>